<svg xmlns="http://www.w3.org/2000/svg" viewBox="0 0 1200 1500" role="img" aria-labelledby="title desc">
  <title id="title">BGD/INK Premium hoodie</title>
  <desc id="desc">Premium technical flat-lay illustration of a heavyweight hoodie with a marked front print surface.</desc>
  <defs>
    <linearGradient id="bg" x1="0" y1="0" x2="1" y2="1">
      <stop offset="0" stop-color="#151515"/>
      <stop offset=".55" stop-color="#080808"/>
      <stop offset="1" stop-color="#030303"/>
    </linearGradient>
    <radialGradient id="spot" cx="52%" cy="42%" r="57%">
      <stop offset="0" stop-color="#7c2d26" stop-opacity=".35"/>
      <stop offset=".64" stop-color="#331512" stop-opacity=".12"/>
      <stop offset="1" stop-color="#000" stop-opacity="0"/>
    </radialGradient>
    <linearGradient id="fabric" x1=".08" y1="0" x2=".92" y2="1">
      <stop offset="0" stop-color="#eee9df"/>
      <stop offset=".26" stop-color="#d5cec2"/>
      <stop offset=".66" stop-color="#b7aea0"/>
      <stop offset="1" stop-color="#8e857a"/>
    </linearGradient>
    <linearGradient id="hoodFabric" x1="0" y1="0" x2="1" y2="1">
      <stop offset="0" stop-color="#d9d2c7"/>
      <stop offset=".62" stop-color="#aaa196"/>
      <stop offset="1" stop-color="#777069"/>
    </linearGradient>
    <linearGradient id="leftGlow" x1="0" y1="0" x2="1" y2="0"><stop offset="0" stop-color="#fff" stop-opacity=".5"/><stop offset=".6" stop-color="#fff" stop-opacity=".06"/><stop offset="1" stop-color="#fff" stop-opacity="0"/></linearGradient>
    <linearGradient id="rightShade" x1="0" y1="0" x2="1" y2="0"><stop offset="0" stop-color="#443e38" stop-opacity="0"/><stop offset="1" stop-color="#443e38" stop-opacity=".48"/></linearGradient>
    <pattern id="grid" width="72" height="72" patternUnits="userSpaceOnUse"><path d="M72 0H0V72" fill="none" stroke="#fff" stroke-opacity=".052" stroke-width="2"/><circle cx="0" cy="0" r="2" fill="#fff" fill-opacity=".055"/></pattern>
    <filter id="shadow" x="-35%" y="-30%" width="170%" height="180%"><feGaussianBlur in="SourceAlpha" stdDeviation="34" result="blur"/><feOffset in="blur" dy="44" result="offsetBlur"/><feColorMatrix in="offsetBlur" type="matrix" values="0 0 0 0 0 0 0 0 0 0 0 0 0 0 0 0 0 0 .74 0" result="shadowColor"/><feMerge><feMergeNode in="shadowColor"/><feMergeNode in="SourceGraphic"/></feMerge></filter>
    <filter id="grain" x="-10%" y="-10%" width="120%" height="120%"><feTurbulence type="fractalNoise" baseFrequency=".55" numOctaves="3" seed="27" result="noise"/><feColorMatrix in="noise" type="matrix" values="1 0 0 0 0 0 1 0 0 0 0 0 1 0 0 0 0 0 .08 0" result="grainAlpha"/><feBlend in="SourceGraphic" in2="grainAlpha" mode="soft-light"/></filter>
    <filter id="foldBlur" x="-20%" y="-20%" width="140%" height="140%"><feGaussianBlur stdDeviation="8"/></filter>
    <clipPath id="bodyClip"><path d="M397 363C454 323 514 303 600 303s146 20 203 60l195 119c29 18 40 55 25 85l-91 184c-15 30-52 42-81 26l-62-34 24 390c4 74-55 136-129 136H516c-74 0-133-62-129-136l24-390-62 34c-29 16-66 4-81-26l-91-184c-15-30-4-67 25-85l195-119Z"/></clipPath>
  </defs>

  <rect width="1200" height="1500" rx="58" fill="url(#bg)"/>
  <rect x="26" y="26" width="1148" height="1448" rx="42" fill="url(#grid)" stroke="#fff" stroke-opacity=".09" stroke-width="2"/>
  <rect width="1200" height="1500" rx="58" fill="url(#spot)"/>
  <path d="M958 94h156v156H958z" fill="none" stroke="#ef3d31" stroke-width="4" opacity=".9"/>
  <circle cx="1036" cy="172" r="42" fill="#ef3d31"/>
  <g fill="#f7f2e8" font-family="Arial, Helvetica, sans-serif"><text x="82" y="104" font-size="24" font-weight="700" letter-spacing="7">BGD/INK / 03</text><text x="82" y="144" font-size="15" font-weight="700" letter-spacing="4" opacity=".48">HEAVYWEIGHT / HOOD CONSTRUCTION</text></g>
  <path d="M82 196h216" stroke="#fff" stroke-opacity=".18" stroke-width="2"/>
  <ellipse cx="600" cy="1280" rx="340" ry="62" fill="#000" opacity=".7" filter="url(#foldBlur)"/>

  <g filter="url(#shadow)">
    <path d="M456 353C426 257 442 160 510 112c52-37 128-37 180 0 68 48 84 145 54 241-39-36-87-54-144-54s-105 18-144 54Z" fill="url(#hoodFabric)" stroke="#fff" stroke-opacity=".3" stroke-width="4"/>
    <path d="M491 287c6-76 43-121 109-121s103 45 109 121c-28-22-65-34-109-34s-81 12-109 34Z" fill="#25211f" stroke="#706960" stroke-width="5"/>
    <path d="M463 331c37-38 83-57 137-57s100 19 137 57" fill="none" stroke="#756d64" stroke-width="6" stroke-linecap="round" opacity=".65"/>

    <path d="M397 363C454 323 514 303 600 303s146 20 203 60l195 119c29 18 40 55 25 85l-91 184c-15 30-52 42-81 26l-62-34 24 390c4 74-55 136-129 136H516c-74 0-133-62-129-136l24-390-62 34c-29 16-66 4-81-26l-91-184c-15-30-4-67 25-85l195-119Z" fill="url(#fabric)" stroke="#fff" stroke-opacity=".34" stroke-width="4" stroke-linejoin="round"/>
    <g clip-path="url(#bodyClip)">
      <path d="M185 430c166-88 287-111 365-90-60 203-78 488-48 842H261L185 430Z" fill="url(#leftGlow)" opacity=".65"/>
      <path d="M642 301c170 52 277 170 376 298l-98 187-131-43 24 403H683c36-337 22-620-41-845Z" fill="url(#rightShade)" opacity=".72"/>
      <path d="M404 374c76 105 111 219 116 342" fill="none" stroke="#fff" stroke-opacity=".25" stroke-width="28" stroke-linecap="round" filter="url(#foldBlur)"/>
      <path d="M796 374c-75 103-108 217-115 341" fill="none" stroke="#5a534c" stroke-opacity=".28" stroke-width="34" stroke-linecap="round" filter="url(#foldBlur)"/>
      <path d="M514 402c25 190 22 404-11 645M686 402c-24 188-21 405 11 648" fill="none" stroke="#6d655d" stroke-opacity=".13" stroke-width="24" filter="url(#foldBlur)"/>
    </g>

    <path d="M487 318c22 42 60 63 113 63s91-21 113-63" fill="none" stroke="#70685f" stroke-width="10" stroke-linecap="round"/>
    <path d="M538 345l-18 190M662 345l18 190" stroke="#655e57" stroke-width="7" stroke-linecap="round"/>
    <path d="M535 342l-18 190M659 342l18 190" stroke="#f0eae0" stroke-opacity=".54" stroke-width="3" stroke-linecap="round"/>
    <circle cx="517" cy="544" r="13" fill="#1a1817"/><circle cx="680" cy="544" r="13" fill="#1a1817"/>
    <path d="M202 633c50 18 97 14 142-12M998 633c-50 18-97 14-142-12" fill="none" stroke="#756e65" stroke-opacity=".44" stroke-width="6" stroke-linecap="round"/>
    <path d="M402 1116c126 29 270 29 396 0" fill="none" stroke="#71695f" stroke-opacity=".47" stroke-width="8" stroke-linecap="round"/>
    <path d="M399 1138c128 26 274 26 402 0" fill="none" stroke="#fff" stroke-opacity=".22" stroke-width="4" stroke-linecap="round"/>
    <path d="M421 879c52-48 112-72 179-72s127 24 179 72l43 154c-148 34-296 34-444 0l43-154Z" fill="#9d9589" fill-opacity=".7" stroke="#71695f" stroke-width="5"/>
    <path d="M457 894c41 33 89 49 143 49s102-16 143-49" fill="none" stroke="#d3cbc0" stroke-opacity=".45" stroke-width="4"/>
    <path d="M383 1085c142 23 292 23 434 0" stroke="#736b63" stroke-opacity=".45" stroke-width="4"/>
  </g>

  <g aria-hidden="true">
    <rect x="445" y="520" width="310" height="330" rx="18" fill="#ef3d31" fill-opacity=".018" stroke="#ef3d31" stroke-opacity=".54" stroke-width="3" stroke-dasharray="13 14"/>
    <path d="M445 577v-57h57M698 520h57v57M445 793v57h57M698 850h57v-57" fill="none" stroke="#ef3d31" stroke-width="7"/>
    <path d="M755 568h155" stroke="#ef3d31" stroke-opacity=".52" stroke-width="2"/>
    <rect x="910" y="534" width="196" height="72" rx="14" fill="#101010" stroke="#fff" stroke-opacity=".14"/>
    <text x="932" y="564" fill="#f7f2e8" font-family="Arial, Helvetica, sans-serif" font-size="13" font-weight="700" letter-spacing="3">PRINT AREA</text>
    <text x="932" y="590" fill="#ef3d31" font-family="Arial, Helvetica, sans-serif" font-size="16" font-weight="700">30 × 34 CM</text>
  </g>

  <g font-family="Arial, Helvetica, sans-serif"><text x="82" y="1376" fill="#f7f2e8" font-size="19" font-weight="700" letter-spacing="5">PREMIUM HOODIE STUDY</text><text x="82" y="1414" fill="#f7f2e8" font-size="14" font-weight="700" letter-spacing="3" opacity=".42">DOUBLE HOOD · DRAW CORD · KANGAROO POCKET</text><path d="M82 1450h1036" stroke="#fff" stroke-opacity=".12" stroke-width="2"/></g>
</svg>
