<svg xmlns="http://www.w3.org/2000/svg" viewBox="0 0 1200 1500" role="img" aria-labelledby="title desc">
  <title id="title">BGD/INK Premium hoodie</title>
  <desc id="desc">Editorial hoodie illustration marked as awaiting approved 3D geometry.</desc>
  <defs>
    <linearGradient id="bg" x1="0" y1="0" x2="1" y2="1">
      <stop offset="0" stop-color="#131313"/>
      <stop offset="1" stop-color="#030303"/>
    </linearGradient>
    <linearGradient id="fabric" x1="0" y1="0" x2="1" y2="1">
      <stop offset="0" stop-color="#ece7dc"/>
      <stop offset=".62" stop-color="#c8c0b2"/>
      <stop offset="1" stop-color="#8e877d"/>
    </linearGradient>
    <pattern id="grid" width="60" height="60" patternUnits="userSpaceOnUse">
      <path d="M60 0H0V60" fill="none" stroke="#fff" stroke-opacity=".05" stroke-width="2"/>
    </pattern>
    <filter id="shadow" x="-30%" y="-30%" width="160%" height="170%">
      <feDropShadow dx="0" dy="36" stdDeviation="30" flood-color="#000" flood-opacity=".58"/>
    </filter>
  </defs>
  <rect width="1200" height="1500" rx="56" fill="url(#bg)"/>
  <rect x="28" y="28" width="1144" height="1444" rx="38" fill="url(#grid)" stroke="#fff" stroke-opacity=".09"/>
  <path d="M932 92h182v182H932z" fill="none" stroke="#e13b2d" stroke-width="4"/>
  <circle cx="1023" cy="183" r="48" fill="#e13b2d"/>
  <g fill="#f4f1e8" font-family="Arial, Helvetica, sans-serif">
    <text x="86" y="112" font-size="30" font-weight="700" letter-spacing="8">BGD/INK / 03</text>
    <text x="86" y="151" font-size="17" letter-spacing="5" opacity=".58">COLLECTION DIRECTION / MODEL PENDING</text>
  </g>
  <g filter="url(#shadow)" transform="translate(0 54)">
    <path d="M461 231c26-67 74-107 139-107s113 40 139 107l56 116c80 36 150 92 209 160l-102 175-118-74 39 577H377l39-577-118 74-102-175c59-68 129-124 209-160l56-116Z" fill="url(#fabric)" stroke="#fff" stroke-opacity=".28" stroke-width="4"/>
    <path d="M476 263c35 48 76 73 124 73s89-25 124-73c-1-73-41-118-124-118s-123 45-124 118Z" fill="#aaa297" stroke="#7d766d" stroke-width="5"/>
    <path d="M494 271c27 31 62 47 106 47s79-16 106-47" fill="none" stroke="#5f5952" stroke-width="5"/>
    <path d="M542 327v152M658 327v152" stroke="#5f5952" stroke-width="6" stroke-linecap="round"/>
    <circle cx="542" cy="486" r="12" fill="#222"/><circle cx="658" cy="486" r="12" fill="#222"/>
    <rect x="455" y="500" width="290" height="350" rx="8" fill="#e13b2d" fill-opacity=".035" stroke="#e13b2d" stroke-opacity=".48" stroke-width="4" stroke-dasharray="18 14"/>
    <path d="M459 944c45-39 92-58 141-58s96 19 141 58l40 112H419l40-112Z" fill="#b0a89b" stroke="#817a70" stroke-width="4"/>
    <path d="M419 1056h362" stroke="#6f6961" stroke-width="4"/>
    <g transform="translate(505 620)" opacity=".74">
      <circle cx="95" cy="62" r="62" fill="#0a0a0a"/>
      <path d="M62 61h66M95 28v66" stroke="#f1ede5" stroke-width="10"/>
      <rect x="125" y="91" width="22" height="22" rx="3" fill="#e13b2d"/>
    </g>
  </g>
  <g font-family="Arial, Helvetica, sans-serif">
    <text x="86" y="1330" fill="#f4f1e8" font-size="54" font-weight="700" letter-spacing="-2">PREMIUM HOODIE</text>
    <text x="86" y="1380" fill="#f4f1e8" fill-opacity=".56" font-size="22" letter-spacing="4">GENUINE MODEL REQUIRED</text>
    <path d="M86 1422h1028" stroke="#fff" stroke-opacity=".13"/>
    <text x="86" y="1458" fill="#f4f1e8" fill-opacity=".45" font-size="17" letter-spacing="3">CUSTOMIZATION UNLOCKS AFTER GEOMETRY APPROVAL</text>
  </g>
</svg>
